<svg xmlns="http://www.w3.org/2000/svg" width="214.657" height="214.657" viewBox="0 0 214.657 214.657"><g transform="translate(-98.671 -164.343)"><g transform="translate(96.671 162.343)"><path d="M63.2,57.587A3.067,3.067,0,0,1,60.13,54.52V45.6a3.067,3.067,0,0,1,6.133,0V54.52A3.067,3.067,0,0,1,63.2,57.587Z" transform="translate(120.127 83.756)" fill="#515151"/><path d="M162.927,165.994H14.937a3.067,3.067,0,0,1-3.067-3.067V14.937a3.067,3.067,0,0,1,3.067-3.067H162.927a3.067,3.067,0,0,1,3.067,3.067V56.917a3.067,3.067,0,0,1-6.133,0V18H18V159.861H159.861V139.346a3.067,3.067,0,0,1,6.133,0v23.582A3.067,3.067,0,0,1,162.927,165.994Z" transform="translate(20.397 20.397)" fill="#515151"/><path d="M63.2,47.8a3.067,3.067,0,0,1-3.067-3.067V35.627a3.067,3.067,0,1,1,6.133,0v9.108A3.067,3.067,0,0,1,63.2,47.8Z" transform="translate(120.127 63.153)" fill="#515151"/><path d="M63.2,21.586a3.067,3.067,0,0,1-3.067-3.067V5.067a3.067,3.067,0,1,1,6.133,0V18.519A3.067,3.067,0,0,1,63.2,21.586Z" transform="translate(120.125)" fill="#515151"/><path d="M14.938,21.586a3.067,3.067,0,0,1-3.067-3.067V5.067a3.067,3.067,0,1,1,6.133,0V18.519A3.067,3.067,0,0,1,14.938,21.586Z" transform="translate(20.399)" fill="#515151"/><path d="M63.2,85.2a3.067,3.067,0,0,1-3.067-3.067V68.68a3.067,3.067,0,1,1,6.133,0V82.132A3.067,3.067,0,0,1,63.2,85.2Z" transform="translate(120.125 131.458)" fill="#515151"/><path d="M14.938,85.2a3.067,3.067,0,0,1-3.067-3.067V68.68a3.067,3.067,0,0,1,6.133,0V82.132A3.067,3.067,0,0,1,14.938,85.2Z" transform="translate(20.399 131.458)" fill="#515151"/><path d="M82.132,66.262H68.68a3.067,3.067,0,1,1,0-6.133H82.132a3.067,3.067,0,1,1,0,6.133Z" transform="translate(131.458 120.125)" fill="#515151"/><path d="M82.132,18H68.68a3.067,3.067,0,0,1,0-6.133H82.132a3.067,3.067,0,1,1,0,6.133Z" transform="translate(131.458 20.399)" fill="#515151"/><path d="M18.519,66.262H5.067a3.067,3.067,0,1,1,0-6.133H18.519a3.067,3.067,0,1,1,0,6.133Z" transform="translate(0 120.125)" fill="#515151"/><path d="M18.519,18H5.067a3.067,3.067,0,1,1,0-6.133H18.519a3.067,3.067,0,1,1,0,6.133Z" transform="translate(0 20.399)" fill="#515151"/></g><g transform="translate(101.693 206.981)"><path d="M315.824,45.536c.563,1.539,6.817,19.854-6.009,41.453-7.791,13.118-19.62,13.986-20.778,14.04-.678-.941-7.357-10.742-1.931-25C296.038,52.548,314.269,46.052,315.824,45.536Z" transform="translate(-173.475 -34.207)" fill="#80c56e"/><path d="M328.022,45.536l-26.788,55.493h0c1.159-.054,12.987-.922,20.778-14.04C334.839,65.39,328.585,47.075,328.022,45.536Z" transform="translate(-185.673 -34.207)" fill="#66ad66"/><path d="M297.907,270.024l.828-1.715-.065-.092C298.158,269.414,297.907,270.024,297.907,270.024Z" transform="translate(-183.174 -201.488)" fill="#fff" stroke="#000" stroke-linecap="round" stroke-linejoin="round" stroke-miterlimit="10" stroke-width="15"/><path d="M97,45.536c-.563,1.539-6.817,19.854,6.009,41.453,7.791,13.118,19.62,13.986,20.778,14.04.678-.941,7.357-10.742,1.931-25C116.791,52.548,98.56,46.052,97,45.536Z" transform="translate(-30.738 -34.207)" fill="#80c56e"/><path d="M131.813,76.026c-8.933-23.478-27.164-29.974-28.719-30.49,15.84,30.255,24.385,49.635,26.853,55.4C130.9,99.578,137.1,89.919,131.813,76.026Z" transform="translate(-36.828 -34.207)" fill="#66ad66"/><path d="M193.038,0c-1.91,1.853-23.985,24.223-20.474,64.862,2.132,24.684,18.818,34.3,20.474,35.2,1.656-.9,18.342-10.516,20.474-35.2C217.023,24.223,194.948,1.853,193.038,0Z" transform="translate(-88.731)" fill="#80c56e"/><path d="M256,0V100.063c1.656-.9,18.342-10.516,20.474-35.2C279.985,24.223,257.91,1.853,256,0Z" transform="translate(-151.693)" fill="#66ad66"/><path d="M303.262,166.877a79.98,79.98,0,0,0,2.748-27.543s-8,3.563-28.1,16.553c-15.625,10.1-20.46,27.8-21.909,32.572h18.364A30.063,30.063,0,0,0,303.262,166.877Z" transform="translate(-151.693 -104.669)" fill="#80c56e"/><path d="M306.009,139.333S285.35,180.145,256,188.458h18.364a30.063,30.063,0,0,0,28.9-21.582A79.989,79.989,0,0,0,306.009,139.333Z" transform="translate(-151.693 -104.668)" fill="#66ad66"/><path d="M57.046,166.877A79.98,79.98,0,0,1,54.3,139.334s8,3.563,28.1,16.553c15.625,10.1,20.46,27.8,21.909,32.572H85.943A30.063,30.063,0,0,1,57.046,166.877Z" transform="translate(0 -104.669)" fill="#80c56e"/><path d="M105,188.458c-1.449-4.771-6.283-22.475-21.909-32.572-20.1-12.99-28.1-16.553-28.1-16.553S75.648,180.145,105,188.458Z" transform="translate(-0.691 -104.668)" fill="#66ad66"/><path d="M168.584,383.469H142.025A14.622,14.622,0,0,1,127.65,371.52L121.956,340.9h66.7L182.96,371.52A14.622,14.622,0,0,1,168.584,383.469Z" transform="translate(-50.997 -256.088)" fill="#fec37d"/><path d="M277.593,340.9,271.9,371.52a14.622,14.622,0,0,1-14.376,11.948h12.9A14.622,14.622,0,0,0,284.8,371.52l5.694-30.619h-12.9Z" transform="translate(-152.837 -256.088)" fill="#f9ae5d"/><path d="M171.013,337.976H101.99a5.064,5.064,0,0,1-5.064-5.064h0a5.064,5.064,0,0,1,5.064-5.064h69.023a5.064,5.064,0,0,1,5.064,5.064h0A5.065,5.065,0,0,1,171.013,337.976Z" transform="translate(-32.195 -246.282)" fill="#f2a559"/><path d="M370.218,327.846H362.1v10.129h8.114a5.064,5.064,0,0,0,5.064-5.064h0A5.064,5.064,0,0,0,370.218,327.846Z" transform="translate(-231.399 -246.281)" fill="#ea8f3d"/></g></g></svg>