<svg id="SvgjsSvg7339" width="134" height="169" xmlns="http://www.w3.org/2000/svg" version="1.1" xmlns:xlink="http://www.w3.org/1999/xlink" xmlns:svgjs="http://svgjs.com/svgjs" viewBox="139 179 134 169"><defs id="SvgjsDefs7340"></defs><svg id="SvgjsSvg7341" width="44" height="74" xmlns="http://www.w3.org/2000/svg" version="1.1" xmlns:xlink="http://www.w3.org/1999/xlink" xmlns:svgjs="http://svgjs.com/svgjs" viewBox="0.10113525390625 0 43.79779052734375 74" fill="#80c56e" opacity="1" x="215" y="194"><defs id="SvgjsDefs7342"></defs><svg version="1.1" xmlns="http://www.w3.org/2000/svg" xmlns:xlink="http://www.w3.org/1999/xlink" width="44" height="74" viewBox="0.533055 0.499191 43.4036 73.334"><g><path fill="#80c56e" stroke="none" paint-order="stroke fill markers" fill-rule="evenodd" d=" M 41.27127754688263 0.4991905689239502 C 42.015641272068024 2.5331698656082153 50.28032964468002 26.73708164691925 33.32974451780319 55.27906918525696 C 23.034175515174866 72.61487650871277 7.402537286281586 73.76221168041229 5.8714600801467896 73.83320212364197 C 4.974866151809692 72.59013295173645 -3.8502888083457947 59.63688087463379 3.3194103837013245 40.79201114177704 C 15.123927891254425 9.765947222709656 39.216360569000244 1.181994915008545 41.27127754688263 0.4991905689239502 Z"></path></g></svg></svg><svg id="SvgjsSvg7345" width="39" height="74" xmlns="http://www.w3.org/2000/svg" version="1.1" xmlns:xlink="http://www.w3.org/1999/xlink" xmlns:svgjs="http://svgjs.com/svgjs" viewBox="0.29443359375 0 38.4111328125 74" fill="#66ad66" opacity="1" x="220" y="194"><defs id="SvgjsDefs7346"></defs><svg version="1.1" xmlns="http://www.w3.org/2000/svg" xmlns:xlink="http://www.w3.org/1999/xlink" width="39" height="74" viewBox="0.87146 0.499191 38.0654 73.334"><g><path fill="#66ad66" stroke="none" paint-order="stroke fill markers" fill-rule="evenodd" d=" M 36.27165907621384 0.4991905689239502 C 36.27165907621384 0.4991905689239502 0.8714600801467896 73.83320212364197 0.8714600801467896 73.83320212364197 C 0.8714600801467896 73.83320212364197 0.8714600801467896 73.83320212364197 0.8714600801467896 73.83320212364197 C 2.4025372862815857 73.76162254810333 18.034175515174866 72.61487650871277 28.329744517803192 55.27906918525696 C 45.28071117401123 26.73708164691925 37.015641272068024 2.5331698656082153 36.27165907621384 0.4991905689239502 Z"></path></g></svg></svg><svg id="SvgjsSvg7349" width="2" height="4" xmlns="http://www.w3.org/2000/svg" version="1.1" xmlns:xlink="http://www.w3.org/1999/xlink" xmlns:svgjs="http://svgjs.com/svgjs" viewBox="0.08355712890625 0 1.8328857421875 4" fill="#ffffff" stroke-dashoffset="0" stroke-dasharray="" stroke-miterlimit="100" stroke-linejoin="miter" stroke-linecap="round" stroke-opacity="1" stroke="#000000" stroke-width="15" opacity="1" x="219" y="267"><defs id="SvgjsDefs7350"></defs><svg version="1.1" xmlns="http://www.w3.org/2000/svg" xmlns:xlink="http://www.w3.org/1999/xlink" width="2" height="4" viewBox="0.777615 0.711841 1.09384 2.38716"><g><path fill="#ffffff" stroke="#000000" paint-order="stroke fill markers" fill-rule="evenodd" d=" M 0.777615487575531 3.0990049839019775 C 0.777615487575531 3.0990049839019775 1.8714600801467896 0.8332021236419678 1.8714600801467896 0.8332021236419678 C 1.848568320274353 0.8007998466491699 1.8188090324401855 0.7592660188674927 1.7852344512939453 0.7118408679962158 C 1.108782947063446 2.292482852935791 0.777615487575531 3.0990049839019775 0.777615487575531 3.0990049839019775 Z" stroke-dashoffset="0" stroke-dasharray="" stroke-miterlimit="100" stroke-linejoin="miter" stroke-linecap="round" stroke-opacity="1" stroke-width="15"></path></g></svg></svg><svg id="SvgjsSvg7353" width="44" height="74" xmlns="http://www.w3.org/2000/svg" version="1.1" xmlns:xlink="http://www.w3.org/1999/xlink" xmlns:svgjs="http://svgjs.com/svgjs" viewBox="0.10113525390625 0 43.79766845703125 74" fill="#80c56e" opacity="1" x="153" y="194"><defs id="SvgjsDefs7354"></defs><svg version="1.1" xmlns="http://www.w3.org/2000/svg" xmlns:xlink="http://www.w3.org/1999/xlink" width="44" height="74" viewBox="0.0627503 0.499191 43.4035 73.334"><g><path fill="#80c56e" stroke="none" paint-order="stroke fill markers" fill-rule="evenodd" d=" M 2.7279974818229675 0.4991905689239502 C 1.9840152859687805 2.5331698656082153 -6.281054615974426 26.73708164691925 10.669530510902405 55.27906918525696 C 20.96509951353073 72.61487650871277 36.59711927175522 73.76221168041229 38.12781494855881 73.83320212364197 C 39.024408876895905 72.59013295173645 47.84956383705139 59.63688087463379 40.67986464500427 40.79201114177704 C 28.875347137451172 9.765947222709656 4.782914459705353 1.181994915008545 2.7279974818229675 0.4991905689239502 Z"></path></g></svg></svg><svg id="SvgjsSvg7357" width="42" height="74" xmlns="http://www.w3.org/2000/svg" version="1.1" xmlns:xlink="http://www.w3.org/1999/xlink" xmlns:svgjs="http://svgjs.com/svgjs" viewBox="0.41162109375 0 41.1767578125 74.00006103515625" fill="#66ad66" opacity="1" x="155" y="194"><defs id="SvgjsDefs7358"></defs><svg version="1.1" xmlns="http://www.w3.org/2000/svg" xmlns:xlink="http://www.w3.org/1999/xlink" width="42" height="74" viewBox="0.727997 0.499191 40.7386 73.2126"><g><path fill="#66ad66" stroke="none" paint-order="stroke fill markers" fill-rule="evenodd" d=" M 38.67986464500427 40.79201114177704 C 26.875347137451172 9.765947222709656 2.782914459705353 1.181994915008545 0.7279974818229675 0.4991905689239502 C 21.66098576784134 40.48183298110962 32.952346324920654 66.09200358390808 36.21404057741165 73.71184086799622 C 37.47041666507721 71.91587102413177 45.66490364074707 59.15084671974182 38.67986464500427 40.79201114177704 Z"></path></g></svg></svg><svg id="SvgjsSvg7361" width="56" height="133" xmlns="http://www.w3.org/2000/svg" version="1.1" xmlns:xlink="http://www.w3.org/1999/xlink" xmlns:svgjs="http://svgjs.com/svgjs" viewBox="0.28424072265625 0 55.43157958984375 133.0003662109375" fill="#80c56e" opacity="1" x="178" y="179"><defs id="SvgjsDefs7362"></defs><svg version="1.1" xmlns="http://www.w3.org/2000/svg" xmlns:xlink="http://www.w3.org/1999/xlink" width="56" height="133" viewBox="0.443829 0.52816 55.1119 132.233"><g><path fill="#80c56e" stroke="none" paint-order="stroke fill markers" fill-rule="evenodd" d=" M 27.999828279018402 0.5281603336334229 C 25.476011753082275 2.9771833419799805 -3.696865499019623 32.53836977481842 0.9429126977920532 86.24396562576294 C 3.7608883380889893 118.86451613903046 25.810994505882263 131.576518535614 27.999828279018402 132.76155817508698 C 30.188280522823334 131.576518535614 52.238768219947815 118.86422157287598 55.05674386024475 86.24396562576294 C 59.69614052772522 32.53836977481842 30.52326327562332 2.9771833419799805 27.999828279018402 0.5281603336334229 Z"></path></g></svg></svg><svg id="SvgjsSvg7365" width="29" height="133" xmlns="http://www.w3.org/2000/svg" version="1.1" xmlns:xlink="http://www.w3.org/1999/xlink" xmlns:svgjs="http://svgjs.com/svgjs" viewBox="0.64208984375 0 27.7158203125 133.0003662109375" fill="#66ad66" opacity="1" x="205" y="179"><defs id="SvgjsDefs7366"></defs><svg version="1.1" xmlns="http://www.w3.org/2000/svg" xmlns:xlink="http://www.w3.org/1999/xlink" width="29" height="133" viewBox="0.999828 0.52816 27.556 132.233"><g><path fill="#66ad66" stroke="none" paint-order="stroke fill markers" fill-rule="evenodd" d=" M 0.9998282790184021 0.5281603336334229 C 0.9998282790184021 0.5281603336334229 0.9998282790184021 132.76155817508698 0.9998282790184021 132.76155817508698 C 3.1882805228233337 131.576518535614 25.238768219947815 118.86422157287598 28.05674386024475 86.24396562576294 C 32.69652205705643 32.53836977481842 3.5232632756233215 2.9771833419799805 0.9998282790184021 0.5281603336334229 Z"></path></g></svg></svg><svg id="SvgjsSvg7369" width="68" height="66" xmlns="http://www.w3.org/2000/svg" version="1.1" xmlns:xlink="http://www.w3.org/1999/xlink" xmlns:svgjs="http://svgjs.com/svgjs" viewBox="0.2520751953125 0 67.495849609375 66.00006103515625" fill="#80c56e" opacity="1" x="205" y="225"><defs id="SvgjsDefs7370"></defs><svg version="1.1" xmlns="http://www.w3.org/2000/svg" xmlns:xlink="http://www.w3.org/1999/xlink" width="68" height="66" viewBox="0.999828 0.33791 66.3898 64.9185"><g><path fill="#80c56e" stroke="none" paint-order="stroke fill markers" fill-rule="evenodd" d=" M 63.455798268318176 36.73627185821533 C 68.94486075639725 17.871371626853943 67.08681291341782 0.33791041374206543 67.08681291341782 0.33791041374206543 C 67.08681291341782 0.33791041374206543 56.51654279232025 5.046550393104553 29.952181577682495 22.212982177734375 C 9.303432643413544 35.55623984336853 2.9147239923477173 58.95127296447754 0.9998282790184021 65.25646150112152 C 0.9998282790184021 65.25646150112152 25.267764449119568 65.25646150112152 25.267764449119568 65.25646150112152 C 42.90815460681915 65.25646150112152 58.5275838971138 53.67441487312317 63.455798268318176 36.73627185821533 Z"></path></g></svg></svg><svg id="SvgjsSvg7373" width="68" height="66" xmlns="http://www.w3.org/2000/svg" version="1.1" xmlns:xlink="http://www.w3.org/1999/xlink" xmlns:svgjs="http://svgjs.com/svgjs" viewBox="0.2520751953125 0 67.49578857421875 66.00006103515625" fill="#66ad66" opacity="1" x="205" y="225"><defs id="SvgjsDefs7374"></defs><svg version="1.1" xmlns="http://www.w3.org/2000/svg" xmlns:xlink="http://www.w3.org/1999/xlink" width="68" height="66" viewBox="0.999828 0.337616 66.3901 64.9188"><g><path fill="#66ad66" stroke="none" paint-order="stroke fill markers" fill-rule="evenodd" d=" M 67.08719444274902 0.33761584758758545 C 67.08719444274902 0.33761584758758545 39.78610008955002 54.27091133594513 0.9998282790184021 65.25646150112152 C 0.9998282790184021 65.25646150112152 25.267764449119568 65.25646150112152 25.267764449119568 65.25646150112152 C 42.90853613615036 65.25646150112152 58.5275838971138 53.67441487312317 63.45617979764938 36.73627185821533 C 68.94486075639725 17.871371626853943 67.08719444274902 0.33761584758758545 67.08719444274902 0.33761584758758545 Z"></path></g></svg></svg><svg id="SvgjsSvg7377" width="67" height="66" xmlns="http://www.w3.org/2000/svg" version="1.1" xmlns:xlink="http://www.w3.org/1999/xlink" xmlns:svgjs="http://svgjs.com/svgjs" viewBox="0 0.24261474609375 67 65.51483154296875" fill="#80c56e" opacity="1" x="139" y="225"><defs id="SvgjsDefs7378"></defs><svg version="1.1" xmlns="http://www.w3.org/2000/svg" xmlns:xlink="http://www.w3.org/1999/xlink" width="67" height="66" viewBox="0.609654 0.33791 66.3902 64.9185"><g><path fill="#80c56e" stroke="none" paint-order="stroke fill markers" fill-rule="evenodd" d=" M 4.543476760387421 36.73627185821533 C -0.9455857276916504 17.871371626853943 0.9124621152877808 0.33791041374206543 0.9124621152877808 0.33791041374206543 C 0.9124621152877808 0.33791041374206543 11.483113765716553 5.046550393104553 38.04747498035431 22.212982177734375 C 58.69622391462326 35.55623984336853 65.08493256568909 58.95127296447754 66.9998282790184 65.25646150112152 C 66.9998282790184 65.25646150112152 42.731892108917236 65.25646150112152 42.731892108917236 65.25646150112152 C 25.091120421886444 65.25646150112152 9.471691131591797 53.67441487312317 4.543476760387421 36.73627185821533 Z"></path></g></svg></svg><svg id="SvgjsSvg7381" width="67" height="66" xmlns="http://www.w3.org/2000/svg" version="1.1" xmlns:xlink="http://www.w3.org/1999/xlink" xmlns:svgjs="http://svgjs.com/svgjs" viewBox="0 0.09234619140625 67.00006103515625 65.8153076171875" fill="#66ad66" opacity="1" x="139" y="225"><defs id="SvgjsDefs7382"></defs><svg version="1.1" xmlns="http://www.w3.org/2000/svg" xmlns:xlink="http://www.w3.org/1999/xlink" width="67" height="66" viewBox="0.912081 0.337616 66.0877 64.9191"><g><path fill="#66ad66" stroke="none" paint-order="stroke fill markers" fill-rule="evenodd" d=" M 66.9998282790184 65.256756067276 C 65.08493256568909 58.95127296447754 58.69622391462326 35.55623984336853 38.04747498035431 22.212687611579895 C 11.482732236385345 5.046255826950073 0.9120805859565735 0.33761584758758545 0.9120805859565735 0.33761584758758545 C 0.9120805859565735 0.33761584758758545 28.21317493915558 54.27120590209961 66.9998282790184 65.256756067276 Z"></path></g></svg></svg><svg id="SvgjsSvg7385" width="90" height="57" xmlns="http://www.w3.org/2000/svg" version="1.1" xmlns:xlink="http://www.w3.org/1999/xlink" xmlns:svgjs="http://svgjs.com/svgjs" viewBox="0.34454345703125 0 89.3109130859375 57" fill="#fec37d" opacity="1" x="161" y="291"><defs id="SvgjsDefs7386"></defs><svg version="1.1" xmlns="http://www.w3.org/2000/svg" xmlns:xlink="http://www.w3.org/1999/xlink" width="90" height="57" viewBox="0.929375 0.608215 88.1409 56.2533"><g><path fill="#fec37d" stroke="none" paint-order="stroke fill markers" fill-rule="evenodd" d=" M 62.548269867897034 56.86152410507202 C 62.548269867897034 56.86152410507202 27.451005160808563 56.86152410507202 27.451005160808563 56.86152410507202 C 18.141689479351044 56.86152410507202 10.155899047851562 50.22377038002014 8.453896701335907 41.07130539417267 C 8.453896701335907 41.07130539417267 0.9293752312660217 0.6082255840301514 0.9293752312660217 0.6082255840301514 C 0.9293752312660217 0.6082255840301514 89.07028132677078 0.6082255840301514 89.07028132677078 0.6082255840301514 C 89.07028132677078 0.6082255840301514 81.5457598567009 41.07130539417267 81.5457598567009 41.07130539417267 C 79.84337598085403 50.22377038002014 71.85758554935455 56.86152410507202 62.548269867897034 56.86152410507202 Z"></path></g></svg></svg><svg id="SvgjsSvg7389" width="45" height="57" xmlns="http://www.w3.org/2000/svg" version="1.1" xmlns:xlink="http://www.w3.org/1999/xlink" xmlns:svgjs="http://svgjs.com/svgjs" viewBox="0.4259033203125 0 44.148193359375 57" fill="#f9ae5d" opacity="1" x="206" y="291"><defs id="SvgjsDefs7390"></defs><svg version="1.1" xmlns="http://www.w3.org/2000/svg" xmlns:xlink="http://www.w3.org/1999/xlink" width="45" height="57" viewBox="0.500395 0.608215 43.5699 56.2533"><g><path fill="#f9ae5d" stroke="none" paint-order="stroke fill markers" fill-rule="evenodd" d=" M 27.022406220436096 0.6085201501846313 C 27.022406220436096 0.6085201501846313 19.49788475036621 41.07159996032715 19.49788475036621 41.07159996032715 C 17.795882403850555 50.22377038002014 9.809710443019867 56.86152410507202 0.5003947615623474 56.86152410507202 C 0.5003947615623474 56.86152410507202 17.54865139722824 56.86152410507202 17.54865139722824 56.86152410507202 C 26.85796707868576 56.86152410507202 34.843375980854034 50.22377038002014 36.54537832736969 41.07130539417267 C 36.54537832736969 41.07130539417267 44.07028132677078 0.6082255840301514 44.07028132677078 0.6082255840301514 C 44.07028132677078 0.6082255840301514 27.022406220436096 0.6082255840301514 27.022406220436096 0.6082255840301514 C 27.022406220436096 0.6082255840301514 27.022406220436096 0.6085201501846313 27.022406220436096 0.6085201501846313 C 27.022406220436096 0.6085201501846313 27.022406220436096 0.6085201501846313 27.022406220436096 0.6085201501846313 Z"></path></g></svg></svg><svg id="SvgjsSvg7393" width="106" height="14" xmlns="http://www.w3.org/2000/svg" version="1.1" xmlns:xlink="http://www.w3.org/1999/xlink" xmlns:svgjs="http://svgjs.com/svgjs" viewBox="0 0.2178955078125 105.99969482421875 13.564208984375" fill="#f2a559" opacity="1" x="153" y="287"><defs id="SvgjsDefs7394"></defs><svg version="1.1" xmlns="http://www.w3.org/2000/svg" xmlns:xlink="http://www.w3.org/1999/xlink" width="106" height="14" viewBox="0.700169 0.316397 104.6 13.3851"><g><path fill="#f2a559" stroke="none" paint-order="stroke fill markers" fill-rule="evenodd" d=" M 98.60669994354248 13.701482772827148 C 98.60669994354248 13.701482772827148 7.3925750851631165 13.701482772827148 7.3925750851631165 13.701482772827148 C 3.6963189244270325 13.701482772827148 0.7001690864562988 10.704861283302307 0.7001690864562988 7.008939743041992 C 0.7001690864562988 7.008939743041992 0.7001690864562988 7.008939743041992 0.7001690864562988 7.008939743041992 C 0.7001690864562988 3.3127236366271973 3.6963189244270325 0.31639671325683594 7.3925750851631165 0.31639671325683594 C 7.3925750851631165 0.31639671325683594 98.60708147287369 0.31639671325683594 98.60708147287369 0.31639671325683594 C 102.30333763360977 0.31639671325683594 105.29986900091171 3.3127236366271973 105.29986900091171 7.008939743041992 C 105.29986900091171 7.008939743041992 105.29986900091171 7.008939743041992 105.29986900091171 7.008939743041992 C 105.2994874715805 10.704861283302307 102.30333763360977 13.701482772827148 98.60669994354248 13.701482772827148 Z"></path></g></svg></svg><svg id="SvgjsSvg7397" width="19" height="14" xmlns="http://www.w3.org/2000/svg" version="1.1" xmlns:xlink="http://www.w3.org/1999/xlink" xmlns:svgjs="http://svgjs.com/svgjs" viewBox="0.392333984375 0 18.21533203125 14" fill="#ea8f3d" opacity="1" x="240" y="287"><defs id="SvgjsDefs7398"></defs><svg version="1.1" xmlns="http://www.w3.org/2000/svg" xmlns:xlink="http://www.w3.org/1999/xlink" width="19" height="14" viewBox="0.8842 0.316102 17.4153 13.3851"><g><path fill="#ea8f3d" stroke="none" paint-order="stroke fill markers" fill-rule="evenodd" d=" M 11.60669994354248 0.31610214710235596 C 11.60669994354248 0.31610214710235596 0.8841996192932129 0.31610214710235596 0.8841996192932129 0.31610214710235596 C 0.8841996192932129 0.31610214710235596 0.8841996192932129 13.701188206672668 0.8841996192932129 13.701188206672668 C 0.8841996192932129 13.701188206672668 11.60669994354248 13.701188206672668 11.60669994354248 13.701188206672668 C 15.302956104278564 13.701188206672668 18.299487471580505 10.704861283302307 18.299487471580505 7.008645176887512 C 18.299487471580505 7.008645176887512 18.299487471580505 7.008645176887512 18.299487471580505 7.008645176887512 C 18.299869000911713 3.3124290704727173 15.303337633609772 0.31610214710235596 11.60669994354248 0.31610214710235596 Z"></path></g></svg></svg></svg>